Coordinates
version=1
nRows=17
nColumns=24
inDegrees=yes

Units are S.I. units (second, meters, Newtons, ...)
Angles are in degrees.

endheader
time	pelvis_tilt	pelvis_list	pelvis_rotation	pelvis_tx	pelvis_ty	pelvis_tz	hip_flexion_r	hip_adduction_r	hip_rotation_r	knee_angle_r	ankle_angle_r	subtalar_angle_r	mtp_angle_r	hip_flexion_l	hip_adduction_l	hip_rotation_l	knee_angle_l	ankle_angle_l	subtalar_angle_l	mtp_angle_l	lumbar_extension	lumbar_bending	lumbar_rotation
      3.68000000	     61.85003787	      4.83320868	     -1.32077056	      0.77096885	      1.02836207	     -0.28803502	      5.24563503	     -9.80108954	     -1.75582904	    -63.84819050	     20.77797048	     -4.88486041	    -28.46092046	      8.36577001	     -4.23853731	    -17.57973344	    -78.05390483	     21.86987479	     -3.95444593	 113369.91980445	      0.00000000	      0.00000000	      0.00000000
      3.69000000	     61.81778133	      4.83765220	     -1.31150786	      0.77085289	      1.02836693	     -0.28799938	      5.32308056	     -9.75598028	     -1.72944870	    -63.92221709	     20.83389504	     -4.72986453	    -28.48729787	      8.53770145	     -4.31957463	    -17.74939065	    -78.29963032	     22.22354885	     -4.08155718	 107523.94595225	      0.00000000	      0.00000000	      0.00000000
      3.70000000	     61.80020302	      4.85159587	     -1.30217619	      0.77075254	      1.02838728	     -0.28803385	      5.37973172	     -9.71828240	     -1.70887297	    -63.97851107	     20.87469673	     -4.57538746	    -28.53913209	      8.72251160	     -4.39078139	    -17.94479891	    -78.62942691	     22.72208661	     -4.08371033	 101504.62011590	      0.00000000	      0.00000000	      0.00000000
      3.71000000	     61.79109958	      4.87216111	     -1.29438655	      0.77065734	      1.02836932	     -0.28807060	      5.42279004	     -9.68712132	     -1.69628379	    -64.02047197	     20.89765565	     -4.42783289	    -28.61895724	      8.91117003	     -4.45569821	    -18.15176542	    -79.01231883	     23.32421472	     -3.96693760	  95308.96019948	      0.00000000	      0.00000000	      0.00000000
      3.72000000	     61.78239185	      4.89415658	     -1.28879814	      0.77054603	      1.02832901	     -0.28806266	      5.46168083	     -9.65644454	     -1.69271093	    -64.05237652	     20.90346545	     -4.29501414	    -28.72480414	      9.08987644	     -4.51435896	    -18.35227811	    -79.39638051	     23.90562610	     -3.75181205	  88933.99170614	      0.00000000	      0.00000000	      0.00000000
      3.73000000	     61.76999326	      4.91570465	     -1.28785143	      0.77040616	      1.02828674	     -0.28797540	      5.50145777	     -9.62273415	     -1.69642811	    -64.07869234	     20.89636266	     -4.18544981	    -28.84972070	      9.24917377	     -4.57003397	    -18.52815331	    -79.72607263	     24.29941321	     -3.46784559	  82376.75080485	      0.00000000	      0.00000000	      0.00000000
      3.74000000	     61.75520042	      4.93869206	     -1.29456619	      0.77025572	      1.02825333	     -0.28782027	      5.54209001	     -9.58745368	     -1.70369280	    -64.10345871	     20.88364435	     -4.10704449	    -28.98194555	      9.38556462	     -4.62859647	    -18.66670801	    -79.96094372	     24.35471983	     -3.14850109	  75634.28219180	      0.00000000	      0.00000000	      0.00000000
      3.75000000	     61.74088267	      4.96406496	     -1.30829967	      0.77016610	      1.02824263	     -0.28770903	      5.58296772	     -9.55190183	     -1.71217655	    -64.12863674	     20.87442920	     -4.06496894	    -29.10576099	      9.49541483	     -4.68882361	    -18.76766194	    -80.09148203	     23.99442679	     -2.82856156	  68703.63265942	      0.00000000	      0.00000000	      0.00000000
      3.76000000	     61.72523530	      4.98558935	     -1.32161540	      0.77020283	      1.02823925	     -0.28775540	      5.62646957	     -9.51120157	     -1.72422071	    -64.15272734	     20.87768057	     -4.05920518	    -29.20296105	      9.56893638	     -4.73299574	    -18.84646218	    -80.14451492	     23.25280897	     -2.54409506	  61581.84179360	      0.00000000	      0.00000000	      0.00000000
      3.77000000	     61.70186752	      4.99162838	     -1.32405358	      0.77030300	      1.02819847	     -0.28789200	      5.67519197	     -9.45705295	     -1.74565933	    -64.17214775	     20.90005724	     -4.08289171	    -29.25477516	      9.59649928	     -4.73512059	    -18.92687099	    -80.16941388	     22.27920977	     -2.33312579	  54265.93161333	      0.00000000	      0.00000000	      0.00000000
      3.78000000	     61.66872299	      4.97807976	     -1.31262828	      0.77029316	      1.02805846	     -0.28788193	      5.72542013	     -9.38917295	     -1.77999322	    -64.18544918	     20.94463787	     -4.12265774	    -29.24399854	      9.58532163	     -4.68840511	    -19.02322781	    -80.20759024	     21.30206069	     -2.23227453	  46752.89718240	      0.00000000	      0.00000000	      0.00000000
      3.79000000	     61.63995303	      4.96329909	     -1.30045678	      0.77015150	      1.02790384	     -0.28771897	      5.76613441	     -9.32201534	     -1.82382704	    -64.19679860	     21.01122639	     -4.16126924	    -29.15704579	      9.57052202	     -4.62798349	    -19.12600879	    -80.26566479	     20.56179150	     -2.26550040	  39039.69996542	      0.00000000	      0.00000000	      0.00000000
      3.80000000	     61.63620309	      4.97405556	     -1.30663118	      0.77004526	      1.02800175	     -0.28766845	      5.78769570	     -9.27516559	     -1.86933486	    -64.21471552	     21.09777617	     -4.18159832	    -28.98567429	      9.59355346	     -4.60680102	    -19.21226317	    -80.32299938	     20.23409914	     -2.42574364	  31123.26512095	      0.00000000	      0.00000000	      0.00000000
      3.81000000	     61.65327953	      5.00901007	     -1.33310838	      0.77003988	      1.02832267	     -0.28772847	      5.79167245	     -9.25508507	     -1.91157923	    -64.24619888	     21.20175644	     -4.17044896	    -28.72819416	      9.65773321	     -4.63847680	    -19.27375687	    -80.36881658	     20.37403950	     -2.66193708	  23000.48301137	      0.00000000	      0.00000000	      0.00000000
      3.82000000	     61.66216643	      5.03961109	     -1.36171986	      0.77006716	      1.02843771	     -0.28767133	      5.79046245	     -9.24872031	     -1.95237063	    -64.29105214	     21.32092370	     -4.12144913	    -28.39011405	      9.72441520	     -4.68539790	    -19.32552538	    -80.42096751	     20.90923883	     -2.88922575	  14668.21417157	      0.00000000	      0.00000000	      0.00000000
      3.83000000	     61.64670959	      5.04711544	     -1.37374926	      0.77015181	      1.02810700	     -0.28757028	      5.79765519	     -9.23545769	     -1.99729475	    -64.34115630	     21.45378183	     -4.03660198	    -27.98436234	      9.75757853	     -4.70249983	    -19.38754114	    -80.50726370	     21.67854546	     -3.02018633	   6123.29709882	      0.00000000	      0.00000000	      0.00000000
      3.84000000	     61.62168731	      5.03562149	     -1.36325071	      0.77031999	      1.02767176	     -0.28762933	      5.81914498	     -9.20389260	     -2.05064489	    -64.38603235	     21.59991581	     -3.92600915	    -27.53127516	      9.75404956	     -4.67125271	    -19.46689579	    -80.63838364	     22.48422403	     -2.99529205	  -2637.44118226	      0.00000000	      0.00000000	      0.00000000
